<?xml version="1.0" encoding="UTF-8" standalone="no"?>
<!-- Created with Inkscape (http://www.inkscape.org/) -->

<svg
   width="64mm"
   height="64mm"
   viewBox="0 0 64 64"
   version="1.1"
   id="svg1"
   xmlns="http://www.w3.org/2000/svg"
   xmlns:svg="http://www.w3.org/2000/svg">
  <defs
     id="defs1" />
  <g
     id="layer1">
    <g
       id="text1"
       style="opacity:1"
       transform="matrix(0.35390676,0,0,0.35390676,-12.269633,-7.0781735)">
      <path
         style="font-weight:900;font-size:192px;font-family:'Rounded-X Mgen+ 2c';-inkscape-font-specification:'Rounded-X Mgen+ 2c Heavy';text-align:center;baseline-shift:baseline;white-space:pre;display:inline;overflow:visible;vector-effect:none;fill:#14002d;fill-opacity:0;stroke-linecap:round;stroke-linejoin:round;enable-background:accumulate;stop-color:#000000;stop-opacity:1"
         d="m 185.82031,75.9375 q 6.5625,0 11.0625,4.6875 4.6875,4.5 4.6875,11.0625 0,6.75 -4.6875,11.4375 -4.5,4.5 -11.0625,4.5 h -39.75 q -2.0625,0 -2.0625,2.0625 -0.5625,33 -16.875,54.75 -16.125,21.75 -46.124998,30.75 -6.5625,1.875 -12.75,-1.6875 -6,-3.375 -8.4375,-10.125 -2.0625,-6 1.125,-11.625 3.1875,-5.8125 9.5625,-8.0625 17.625,-6.75 26.0625,-19.6875 8.624998,-13.125 8.999998,-34.3125 0,-2.0625 -2.0625,-2.0625 H 56.070312 q -6.5625,0 -11.25,-4.5 -4.5,-4.6875 -4.5,-11.4375 0,-6.5625 4.5,-11.0625 4.6875,-4.6875 11.25,-4.6875 h 47.437498 q 2.0625,0 2.0625,-2.0625 V 55.6875 q 0,-6.75 4.6875,-11.4375 4.875,-4.875 11.625,-4.875 h 5.8125 q 6.75,0 11.4375,4.875 4.875,4.6875 4.875,11.4375 V 73.875 q 0,2.0625 2.0625,2.0625 z"
         id="path1" />
      <path
         style="font-weight:900;font-size:192px;font-family:'Rounded-X Mgen+ 2c';-inkscape-font-specification:'Rounded-X Mgen+ 2c Heavy';text-align:center;baseline-shift:baseline;white-space:pre;display:inline;overflow:visible;vector-effect:none;fill:#ffab40;stroke-linecap:round;stroke-linejoin:round;enable-background:accumulate;stop-color:#000000;stop-opacity:1"
         d="m 121.88281,33.724609 c -5.86047,0 -11.44894,2.357143 -15.62109,6.529297 -4.08404,4.084041 -6.341798,9.625446 -6.341798,15.433594 v 14.599609 h -43.84961 c -5.720523,0 -11.188693,2.284397 -15.246093,6.341797 -3.971251,3.971251 -6.154297,9.391891 -6.154297,15.058594 0,5.755822 2.135728,11.24897 6.074219,15.35156 a 5.6517649,5.6517649 0 0 0 0.162109,0.16211 c 4.075439,3.91242 9.49736,6.07422 15.164062,6.07422 h 43.59375 c -0.666322,11.54038 -3.299609,20.74771 -7.816406,27.62109 a 5.6517649,5.6517649 0 0 0 -0.01172,0.0156 c -4.887124,7.49359 -12.444453,13.3216 -23.349609,17.49805 l 0.140625,-0.0508 c -5.396567,1.90468 -9.868391,5.65714 -12.611328,10.63477 -2.793823,4.94896 -3.377969,10.8692 -1.539063,16.21875 a 5.6517649,5.6517649 0 0 0 0.0293,0.082 c 2.021696,5.59854 5.849051,10.22912 10.951172,13.10938 5.241174,3.01134 11.375087,3.85349 17.103516,2.21679 a 5.6517649,5.6517649 0 0 0 0.07031,-0.0215 c 20.932191,-6.27966 37.512661,-17.24877 49.039061,-32.79492 11.064,-14.76266 16.90577,-33.1466 17.82031,-54.5293 h 36.33008 c 5.66671,0 11.08735,-2.18305 15.0586,-6.1543 4.08404,-4.08404 6.34179,-9.625442 6.34179,-15.43359 0,-5.68166 -2.2869,-11.106756 -6.34961,-15.050781 -3.94402,-4.062702 -9.36912,-6.34961 -15.05078,-6.34961 H 149.6582 V 55.6875 c 0,-5.822652 -2.36116,-11.368213 -6.53711,-15.425781 -4.05756,-4.17595 -9.60313,-6.53711 -15.42578,-6.53711 z m 0,11.300782 h 5.8125 c 3.13953,0 5.17762,0.86753 7.36328,3.140625 a 5.6517649,5.6517649 0 0 0 0.15821,0.158203 c 2.27309,2.185667 3.14062,4.223755 3.14062,7.363281 V 73.875 c 0,1.629367 0.49417,3.867218 2.16992,5.542969 1.67575,1.67575 3.91361,2.169922 5.54297,2.169922 h 39.75 c 3.02948,0 4.93677,0.816212 6.98633,2.951171 a 5.6517649,5.6517649 0 0 0 0.16211,0.16211 c 2.13496,2.049561 2.95117,3.956852 2.95117,6.986328 0,3.191852 -0.86724,5.275447 -3.0332,7.441406 -2.02875,2.028754 -3.98311,2.845704 -7.06641,2.845704 h -39.75 c -1.62936,0 -3.86722,0.49417 -5.54297,2.16992 -1.67575,1.67575 -2.16992,3.9136 -2.16992,5.54297 v -0.0957 c -0.35949,21.09039 -5.67551,38.02763 -15.74609,51.45507 a 5.6517649,5.6517649 0 0 0 -0.0176,0.0254 c -9.96373,13.43944 -24.117802,22.96168 -43.15625,28.68359 -3.005776,0.85478 -5.360905,0.57405 -8.359375,-1.15234 a 5.6517649,5.6517649 0 0 0 -0.04883,-0.0293 c -2.86728,-1.61285 -4.647522,-3.71652 -5.871094,-7.07617 -0.890791,-2.61662 -0.731243,-4.43166 0.703125,-6.96289 a 5.6517649,5.6517649 0 0 0 0.03906,-0.0684 c 1.509083,-2.75186 3.399735,-4.3611 6.488281,-5.45118 a 5.6517649,5.6517649 0 0 0 0.140625,-0.0508 c 12.587804,-4.82086 22.400493,-12.11312 28.763678,-21.86132 l 0.002,-0.002 c 6.49483,-9.88457 9.6626,-22.44472 9.92578,-37.31445 a 5.6517649,5.6517649 0 0 0 0,-0.0996 c 0,-1.62937 -0.49417,-3.86722 -2.16992,-5.54297 -1.67575,-1.67575 -3.9136,-2.16992 -5.54297,-2.16992 H 56.070312 c -3.037923,0 -5.098271,-0.83867 -7.238281,-2.859376 -1.998215,-2.116438 -2.861328,-4.230039 -2.861328,-7.427734 0,-3.083297 0.816954,-5.037657 2.845703,-7.066406 2.1926,-2.1926 4.22443,-3.033203 7.253906,-3.033203 h 47.437498 c 1.62937,0 3.86722,-0.494172 5.54297,-2.169922 1.67575,-1.675751 2.16992,-3.913602 2.16992,-5.542969 V 55.6875 c 0,-3.191852 0.86725,-5.275447 3.03321,-7.441406 2.32784,-2.327846 4.48938,-3.220703 7.6289,-3.220703 z"
         id="path2" />
    </g>
  </g>
</svg>
