<?xml version="1.0" encoding="UTF-8" standalone="no"?>
<!-- Created with Inkscape (http://www.inkscape.org/) -->

<svg
   width="64mm"
   height="64mm"
   viewBox="0 0 64 64"
   version="1.1"
   id="svg1"
   xmlns="http://www.w3.org/2000/svg"
   xmlns:svg="http://www.w3.org/2000/svg">
  <defs
     id="defs1" />
  <g
     id="layer1">
    <g
       id="text1"
       style="opacity:1"
       transform="matrix(0.35390676,0,0,0.35390676,-16.649229,-7.011816)">
      <path
         style="font-weight:900;font-size:192px;font-family:'Rounded-X Mgen+ 2c';-inkscape-font-specification:'Rounded-X Mgen+ 2c Heavy';text-align:center;baseline-shift:baseline;white-space:pre;display:inline;overflow:visible;vector-effect:none;fill:#14002d;fill-opacity:0;stroke-linecap:round;stroke-linejoin:round;enable-background:accumulate;stop-color:#000000;stop-opacity:1"
         d="m 154.69531,35.8125 q 4.3125,-2.0625 8.625,-0.75 4.5,1.3125 6.5625,5.4375 0.9375,1.875 3,5.8125 2.0625,3.75 3,5.625 2.0625,4.125 0.5625,8.4375 -1.3125,4.3125 -5.4375,6.375 -4.3125,1.875 -8.4375,0.5625 -4.125,-1.5 -6.375,-5.625 -3,-5.8125 -6,-11.0625 -2.0625,-4.125 -0.9375,-8.4375 1.3125,-4.3125 5.4375,-6.375 z M 201.75781,36 q 4.3125,7.6875 6.375,11.8125 2.0625,3.9375 0.5625,8.25 -1.5,4.3125 -5.8125,6.375 -4.125,2.0625 -8.625,0.75 -4.3125,-1.5 -6.5625,-5.625 -1.875,-3.75 -6,-11.625 -2.0625,-4.125 -0.9375,-8.625 1.3125,-4.5 5.4375,-6.375 4.3125,-2.0625 8.8125,-0.5625 4.5,1.3125 6.75,5.625 z M 92.070312,130.3125 q -1.875,0.375 -1.875,2.4375 v 16.125 q 0,9 2.625,11.8125 2.625,2.625 10.874998,2.625 33.1875,0 63.9375,-1.875 6.5625,-0.375 11.25,3.9375 4.875,4.3125 5.0625,10.6875 0.1875,6.75 -4.3125,11.625 -4.5,4.875 -11.0625,5.25 -33.75,1.875 -69.749998,2.0625 -25.5,0 -35.8125,-10.3125 -10.3125,-10.5 -10.3125,-37.6875 V 63.375 q 0,-6.75 4.875,-11.4375 4.875,-4.875 11.625,-4.875 h 4.6875 q 6.75,0 11.4375,4.875 4.875,4.6875 4.875,11.4375 v 32.4375 q 0,2.0625 2.0625,1.875 36.374998,-7.125 71.062498,-18.5625 6.1875,-2.0625 12.1875,0.9375 6,3 7.875,9.375 2.0625,6.5625 -1.125,12.5625 -3,5.8125 -9.5625,7.875 -39.1875,12.75 -80.624998,20.4375 z"
         id="path1" />
      <path
         style="font-weight:900;font-size:192px;font-family:'Rounded-X Mgen+ 2c';-inkscape-font-specification:'Rounded-X Mgen+ 2c Heavy';text-align:center;baseline-shift:baseline;white-space:pre;display:inline;overflow:visible;vector-effect:none;fill:#ffab40;stroke-linecap:round;stroke-linejoin:round;enable-background:accumulate;stop-color:#000000;stop-opacity:1"
         d="m 190.19922,24.169922 c -2.20303,0.140388 -4.37816,0.698194 -6.38672,1.65039 -4.07165,1.868737 -7.22389,5.601885 -8.48047,9.910157 a 5.6517649,5.6517649 0 0 0 -0.0566,0.210937 c -0.16939,0.677576 -0.23282,1.370953 -0.32227,2.060547 -0.003,-0.0061 -0.0126,-0.02319 -0.0156,-0.0293 -1.99763,-3.995263 -5.71164,-7.06032 -10.00195,-8.322265 -4.15814,-1.257131 -8.72946,-0.823853 -12.67774,1.064453 a 5.6517649,5.6517649 0 0 0 -0.0898,0.04297 c -3.94472,1.972361 -7.03432,5.572598 -8.31641,9.785157 a 5.6517649,5.6517649 0 0 0 -0.0625,0.21875 c -1.07401,4.117039 -0.55953,8.56844 1.35156,12.390625 a 5.6517649,5.6517649 0 0 0 0.14844,0.277343 c 1.95687,3.424514 3.91884,7.040632 5.88477,10.84961 a 5.6517649,5.6517649 0 0 0 0.0605,0.115234 c 2.05731,3.771726 5.40086,6.77272 9.4043,8.228516 a 5.6517649,5.6517649 0 0 0 0.21875,0.07422 c 0.90555,0.288128 1.83659,0.466632 2.77344,0.59375 -0.70008,0.156149 -1.41088,0.243729 -2.09766,0.472656 -21.39906,7.055139 -43.30694,12.817934 -65.687497,17.388672 V 63.375 c 0,-5.822652 -2.36116,-11.368213 -6.537109,-15.425781 -4.057568,-4.17595 -9.60313,-6.53711 -15.425782,-6.53711 h -4.6875 c -5.84096,0 -11.408522,2.345972 -15.576171,6.492188 -4.202358,4.061122 -6.574219,9.628426 -6.574219,15.470703 V 147 c 0,18.83952 3.348058,32.90684 11.93164,41.64648 a 5.6517649,5.6517649 0 0 0 0.03516,0.0371 c 8.521837,8.52184 22.04679,11.9668 39.808593,11.9668 a 5.6517649,5.6517649 0 0 0 0.0293,0 c 24.088915,-0.12546 47.432515,-0.81472 70.033205,-2.07031 a 5.6517649,5.6517649 0 0 0 0.01,0 c 5.69407,-0.32538 11.01288,-2.85559 14.89258,-7.0586 3.90826,-4.23395 5.96948,-9.82311 5.80859,-15.61523 a 5.6517649,5.6517649 0 0 0 0,-0.01 c -0.16565,-5.63223 -2.69538,-10.94824 -6.92773,-14.71289 -4.14776,-3.79532 -9.69053,-5.71238 -15.35547,-5.38867 a 5.6517649,5.6517649 0 0 0 -0.0215,0.002 c -20.37672,1.24249 -41.57517,1.86524 -63.59375,1.86524 -4.722098,0 -6.915162,-1.16348 -6.771486,-0.94531 0.190136,0.11978 -1.078125,-2.56411 -1.078125,-7.8418 v -13.56055 c 26.879011,-5.10431 53.076271,-11.76635 78.556641,-20.05468 5.57153,-1.75455 10.21131,-5.53325 12.85743,-10.63868 2.7409,-5.177543 3.27495,-11.211748 1.52539,-16.826168 -1.65144,-5.562502 -5.54437,-10.184291 -10.75,-12.78711 -2.37987,-1.189933 -4.92741,-1.878136 -7.50782,-2.154296 0.92914,-0.243162 1.84829,-0.536619 2.73438,-0.921875 a 5.6517649,5.6517649 0 0 0 0.27344,-0.126954 c 3.91351,-1.956758 6.97513,-5.519906 8.27539,-9.689453 0.27535,-0.811645 0.44545,-1.651335 0.58789,-2.49414 0.052,0.103647 0.19272,0.369827 0.24218,0.46875 a 5.6517649,5.6517649 0 0 0 0.0937,0.179687 c 2.08891,3.829659 5.5609,6.82799 9.66602,8.25586 a 5.6517649,5.6517649 0 0 0 0.27539,0.08789 c 4.19192,1.222644 8.78004,0.834348 12.68359,-1.101562 4.00873,-1.930485 7.2186,-5.407996 8.67383,-9.591797 1.43704,-4.131474 1.13425,-8.839455 -0.88672,-12.710938 -1.43274,-2.861508 -3.55439,-6.783654 -6.3789,-11.822265 -2.08958,-4.005018 -5.76965,-7.10974 -10.08008,-8.398438 -2.09434,-0.682812 -4.30265,-0.957638 -6.48828,-0.818359 z m 0.71094,11.191406 c 0.7152,-0.04588 1.43602,0.08349 2.31054,0.375 a 5.6517649,5.6517649 0 0 0 0.20508,0.06445 c 1.64588,0.480049 2.4282,1.09887 3.32227,2.8125 a 5.6517649,5.6517649 0 0 0 0.082,0.152344 c 2.85206,5.084114 4.94963,8.977388 6.24804,11.574219 a 5.6517649,5.6517649 0 0 0 0.0488,0.0957 c 0.72023,1.374982 0.79112,2.157659 0.23047,3.769531 -0.53978,1.551866 -1.19007,2.311183 -2.91211,3.134766 a 5.6517649,5.6517649 0 0 0 -0.0898,0.04297 c -1.53548,0.767738 -2.67264,0.865164 -4.36719,0.398438 -1.54627,-0.565049 -2.4469,-1.308281 -3.32812,-2.921875 -0.001,-0.0019 -0.003,-0.002 -0.004,-0.0039 C 191.38102,52.308805 189.431,48.52931 186.75,43.410156 v -0.002 c -0.80388,-1.608506 -0.93665,-2.862498 -0.51953,-4.613281 0.47394,-1.565568 0.93674,-2.091983 2.30273,-2.712891 a 5.6517649,5.6517649 0 0 0 0.0996,-0.04687 c 0.85187,-0.407415 1.56215,-0.627944 2.27735,-0.673828 z M 159.48242,40.1875 c 0.71323,-0.06355 1.40126,0.04017 2.19336,0.28125 a 5.6517649,5.6517649 0 0 0 0.0625,0.01953 c 1.69507,0.494396 2.34284,1.045051 3.08984,2.539063 0.6587,1.317394 1.66606,3.268357 3.04883,5.908203 a 5.6517649,5.6517649 0 0 0 0.0547,0.09961 c 1.35758,2.46832 2.33888,4.314477 2.89648,5.429688 0.77764,1.555279 0.8316,2.464864 0.2793,4.052734 a 5.6517649,5.6517649 0 0 0 -0.0684,0.212891 c -0.45143,1.483285 -1.00714,2.138023 -2.43945,2.880859 -1.67903,0.70053 -2.83562,0.744243 -4.19922,0.332031 -1.42527,-0.540737 -2.32701,-1.281477 -3.24414,-2.96289 l 0.0606,0.115234 c -1.98585,-3.847583 -3.97625,-7.508653 -5.97071,-11.007812 -0.81257,-1.62923 -0.91875,-2.795713 -0.53125,-4.361329 0.45327,-1.424422 1,-2.089122 2.46875,-2.832031 0.87036,-0.411059 1.60102,-0.644857 2.29883,-0.707031 z M 69.195312,52.712891 h 4.6875 c 3.139526,0 5.177614,0.86753 7.363282,3.140625 a 5.6517649,5.6517649 0 0 0 0.158203,0.158203 c 2.273094,2.185667 3.140625,4.223755 3.140625,7.363281 v 32.4375 c 0,1.629367 0.495187,3.981598 2.365234,5.68164 1.870047,1.70004 4.241565,1.96934 5.859375,1.82227 a 5.6517649,5.6517649 0 0 0 0.574219,-0.084 c 24.47724,-4.79451 48.39461,-11.040553 71.74609,-18.740233 a 5.6517649,5.6517649 0 0 0 0.0176,-0.0059 c 2.82532,-0.941772 5.03139,-0.789969 7.87305,0.630859 2.77847,1.389238 4.12319,2.999311 4.98047,5.914063 a 5.6517649,5.6517649 0 0 0 0.0312,0.101562 c 0.97763,3.110643 0.76297,5.416634 -0.72461,8.216797 a 5.6517649,5.6517649 0 0 0 -0.0312,0.05859 C 175.88164,102.03292 174.16138,103.4908 171,104.48438 a 5.6517649,5.6517649 0 0 0 -0.0527,0.0176 c -25.88548,8.42207 -52.51999,15.17284 -79.908208,20.25391 a 5.6517649,5.6517649 0 0 0 -0.07617,0.0156 c -1.60186,0.32038 -3.525524,1.26522 -4.777344,2.89258 -1.25182,1.62737 -1.640625,3.5422 -1.640625,5.08594 v 16.125 c 0,6.54942 0.342927,11.59482 4.144531,15.66797 a 5.6517649,5.6517649 0 0 0 0.134766,0.14062 c 3.843143,3.84315 8.771725,4.2793 14.87109,4.2793 22.22384,0 43.64298,-0.62615 64.25977,-1.88281 3.06664,-0.17524 5.00367,0.52306 7.10156,2.45312 a 5.6517649,5.6517649 0 0 0 0.082,0.0742 c 2.24072,1.98218 3.07369,3.77095 3.1582,6.61719 0.0878,3.20423 -0.72611,5.36442 -2.8164,7.62891 -2.12031,2.29699 -4.17649,3.26678 -7.23242,3.4414 -22.38703,1.24355 -45.53061,1.92976 -69.427737,2.05469 -0.0029,0 -0.005,0 -0.0078,0 C 82.59523,189.3486 72.255625,185.92362 67.02345,180.70507 61.866674,175.4375 58.345703,164.39058 58.345703,147 V 63.375 c 0,-3.139526 0.867531,-5.177614 3.140625,-7.363281 a 5.6517649,5.6517649 0 0 0 0.08008,-0.07813 c 2.327846,-2.327846 4.489381,-3.220703 7.628906,-3.220703 z"
         id="path2" />
    </g>
  </g>
</svg>
