<?xml version="1.0" encoding="UTF-8" standalone="no"?>
<!-- Created with Inkscape (http://www.inkscape.org/) -->

<svg
   width="64mm"
   height="64mm"
   viewBox="0 0 64 64"
   version="1.1"
   id="svg1"
   xmlns="http://www.w3.org/2000/svg"
   xmlns:svg="http://www.w3.org/2000/svg">
  <defs
     id="defs1" />
  <g
     id="layer1">
    <path
       d="m 190.69531,168.9375 q 6.1875,0 10.5,4.5 4.5,4.5 4.5,10.6875 0,6 -4.5,10.5 -4.5,4.5 -10.5,4.5 H 51.195312 q -6.1875,0 -10.6875,-4.5 -4.3125,-4.5 -4.3125,-10.5 0,-6.1875 4.5,-10.6875 4.5,-4.5 10.5,-4.5 h 48.75 q 2.062498,0 2.249998,-2.0625 V 129.75 q 0,-2.0625 -2.249998,-2.25 h -32.25 q -6,0 -10.3125,-4.3125 -4.125,-4.3125 -4.125,-10.125 0,-6 4.3125,-10.3125 4.3125,-4.3125 10.125,-4.3125 h 32.25 q 2.062498,0 2.249998,-2.25 v -22.875 q 0,-2.0625 -2.249998,-2.25 h -44.8125 q -6.1875,0 -10.6875,-4.3125 -4.3125,-4.5 -4.3125,-10.5 0,-6.1875 4.3125,-10.6875 4.5,-4.6875 10.6875,-4.6875 H 186.75781 q 6.1875,0 10.5,4.6875 4.5,4.5 4.5,10.6875 0,6 -4.5,10.5 -4.3125,4.3125 -10.5,4.3125 h -46.875 q -2.0625,0 -2.0625,2.25 v 22.875 q 0,2.0625 2.0625,2.25 h 34.3125 q 6,0 10.125,4.3125 4.3125,4.3125 4.3125,10.3125 0,5.8125 -4.3125,10.125 -4.3125,4.3125 -10.125,4.3125 h -34.3125 q -2.0625,0 -2.0625,2.25 v 37.125 q 0,2.0625 2.0625,2.0625 z m -4.125,-29.25 q 4.875,3.75 5.4375,10.125 0.5625,6.375 -3.375,11.25 -3.75,4.6875 -10.125,5.25 -6.1875,0.5625 -10.875,-3.1875 -6,-5.0625 -9.75,-7.6875 -5.0625,-3.75 -6,-9.75 -0.9375,-6.1875 2.8125,-11.0625 4.125,-5.0625 10.5,-5.8125 6.375,-0.9375 11.4375,3 7.6875,6 9.9375,7.875 z"
       id="text1"
       style="font-weight:900;font-size:192px;font-family:'Rounded-X Mgen+ 2c';-inkscape-font-specification:'Rounded-X Mgen+ 2c Heavy';text-align:center;white-space:pre;fill:#14002d;fill-opacity:0;stroke:#ffab40;stroke-width:11.3024;stroke-linecap:round;stroke-linejoin:round"
       transform="matrix(0.35390676,0,0,0.35390676,-10.803362,-10.718917)"
       aria-label="玉" />
  </g>
</svg>
